# AST/ASF file generated using VICON BodyLanguage
# -----------------------------------------------
:version 1.10
:name VICON
:units
  mass 1.0
  length 0.45
  angle deg
:documentation
   .ast/.asf automatically generated from VICON data using
   VICON BodyBuilder and BodyLanguage model FoxedUp or BRILLIANT.MOD
:root
   order TX TY TZ RX RY RZ
   axis XYZ
   position 0 0 0  
   orientation 0 0 0 
:bonedata
  begin
     id 1 
     name lhipjoint
     direction 0.692814 -0.645514 0.321437 
     length 2.38754 
     axis 0 0 0  XYZ
  end
  begin
     id 2 
     name lfemur
     direction 0.34202 -0.939693 0  
     length 6.41921  
     axis 0 0 20  XYZ
    dof rx ry rz
    limits (-160.0 20.0)
           (-70.0 70.0)
           (-60.0 70.0)
  end
  begin
     id 3 
     name ltibia
     direction 0.34202 -0.939693 0   
     length 6.98247   
     axis 0 0 20   XYZ
    dof rx
    limits (-10.0 170.0)
  end
  begin
     id 4 
     name lfoot
     direction 0.0947186 -0.260237 0.960888   
     length 1.83034   
     axis -90 7.62852e-016 20   XYZ
    dof rx rz
    limits (-45.0 90.0)
           (-70.0 20.0)
  end
  begin
     id 5 
     name ltoes
     direction 1.53538e-011 -4.21952e-011 1   
     length 0.920499   
     axis -90 7.62852e-016 20   XYZ
    dof rx
    limits (-90.0 20.0)
  end
  begin
     id 6 
     name rhipjoint
     direction -0.631686 -0.693949 0.345555   
     length 2.2209  
     axis 0 0 0  XYZ 
  end
  begin
     id 7 
     name rfemur
     direction -0.34202 -0.939693 0   
     length 6.49542   
     axis 0 0 -20   XYZ
    dof rx ry rz
    limits (-160.0 20.0)
           (-70.0 70.0)
           (-70.0 60.0)
  end
  begin
     id 8 
     name rtibia
     direction -0.34202 -0.939693 0   
     length 7.21712   
     axis 0 0 -20   XYZ
    dof rx
    limits (-10.0 170.0)
 end
 begin
     id 9 
     name rfoot
     direction -0.0825378 -0.226771 0.970444   
     length 1.89724  
     axis -90 -7.62852e-016 -20   XYZ
    dof rx rz
    limits (-45.0 90.0)
           (-20.0 70.0)
  end
  begin
     id 10 
     name rtoes
     direction -1.53515e-011 -4.22016e-011 1   
     length 0.955868   
     axis -90 -7.62852e-016 -20   XYZ
    dof rx
    limits (-90.0 20.0)
  end
  begin
     id 11 
     name lowerback
     direction -0.0104711 0.984802 -0.173368   
     length 1.84931   
     axis 0 0 0   XYZ
    dof rx ry rz
    limits (-20.0 45.0)
           (-30.0 30.0)
           (-30.0 30.0)
  end
  begin
     id 12 
     name upperback
     direction -0.00286433 0.999996 -0.000382853   
     length 1.85768   
     axis 0 0 0   XYZ
    dof rx ry rz
    limits (-20.0 45.0)
           (-30.0 30.0)
           (-30.0 30.0)
  end
  begin
     id 13 
     name thorax
     direction 0.00167534 0.996793 0.0800069   
     length 1.92   
     axis 0 0 0   XYZ
    dof rx ry rz
    limits (-20.0 45.0)
           (-30.0 30.0)
           (-30.0 30.0)
  end
  begin
     id 14 
     name lowerneck
     direction -0.0672491 0.995415 0.068018   
     length 1.58923   
     axis 0 0 0   XYZ
    dof rx ry rz
    limits (-20.0 45.0)
           (-30.0 30.0)
           (-30.0 30.0)
  end
  begin
     id 15 
     name upperneck
     direction 0.0958019 0.982476 -0.159884   
     length 1.60189   
     axis 0 0 0   XYZ
    dof rx ry rz
    limits (-20.0 45.0)
           (-30.0 30.0)
           (-30.0 30.0)
  end
  begin
     id 16
     name head
     direction 0.032989 0.997338 -0.0650226  
     length 1.61681  
     axis 0 0 0   XYZ
    dof rx ry rz
    limits (-20.0 45.0)
           (-30.0 30.0)
           (-30.0 30.0)
  end
  begin
     id 17 
     name lclavicle
     direction 0.954279 0.298875 -0.00496069  
     length 2.99449  
     axis 0 0 0   XYZ
    dof ry rz
    limits (-20.0 10.0)
           (0.0 20.0)
  end
  begin
     id 18 
     name lhumerus
     direction 1 -4.48985e-011 -4.2057e-027   
     length 4.79185   
     axis 180 -30 -90   XYZ
    dof rx ry rz
    limits (-60.0 90.0)
           (-90.0 90.0)
           (-90.0 90.0)
  end
  begin
     id 19
     name lradius
     direction 1 -4.48945e-011 1.15441e-028   
     length 2.65553   
     axis 180 -30 -90   XYZ
    dof rx
    limits (-10.0 170.0)
  end
  begin
     id 20
     name lwrist
     direction 1 -4.4899e-011 4.8894e-028   
     length 1.32777   
     axis -2.56392e-016 90 90   XYZ
    dof ry
    limits (-180.0 0.0)
 end
  begin
     id 21 
     name lhand
     direction 1 -4.48908e-011 9.7788e-028   
     length 0.743904   
     axis -6.23971e-016 90 90   XYZ
    dof rx rz
    limits (-90.0 90.0)
           (-45.0 45.0)
  end
  begin
     id 22 
     name lfingers
     direction 1 -4.49068e-011 1.95576e-027   
     length 0.599754   
     axis -1.24794e-015 90 90   XYZ
    dof rx
    limits (0.0 90.0)
  end
  begin
     id 23
     name lthumb
     direction 0.707107 -6.34883e-011 0.707107   
     length 0.861131   
     axis -90 45 2.85299e-015   XYZ
    dof rx rz
    limits (-45.0 45.0)
           (-45.0 45.0)
  end
  begin
     id 24 
     name rclavicle
     direction -0.957921 0.286916 0.00811568   
     length 3.06817  
     axis 0 0 0   XYZ 
    dof ry rz
    limits (-10.0 20.0)
           (-20.0 0.0)
  end
  begin
     id 25 
     name rhumerus
     direction -1 -4.48971e-011 -3.07942e-027  
     length 4.77254   
     axis 180 30 90   XYZ
    dof rx ry rz
    limits (-90.0 60.0)
           (-90.0 90.0)
           (-90.0 90.0)
  end
  begin
     id 26 
     name rradius
     direction -1 -4.48957e-011 -9.6815e-028   
     length 2.75995   
     axis 180 30 90   XYZ
    dof rx
    limits (-10.0 170.0)
  end
  begin
     id 27 
     name rwrist
     direction -1 -4.48979e-011 4.8894e-028   
     length 1.37997   
     axis -2.56392e-016 -90 -90   XYZ
    dof ry
    limits (-180.0 0.0)
  end
  begin
     id 28
     name rhand
     direction -1 -4.48906e-011 9.7788e-028   
     length 0.701619   
     axis -6.23971e-016 -90 -90   XYZ
    dof rx rz
    limits (-90.0 90.0)
           (-45.0 45.0)
  end
  begin
     id 29
     name rfingers
     direction -1 -4.49018e-011 1.95576e-027   
     length 0.565663   
     axis -1.24794e-015 -90 -90   XYZ
    dof rx
    limits (0.0 90.0)
  end
  begin
     id 30
     name rthumb
     direction -0.707107 -6.34881e-011 0.707107   
     length 0.812183   
     axis -90 -45 -2.85299e-015   XYZ
    dof rx rz
    limits (-45.0 45.0)
           (-45.0 45.0)
  end
:hierarchy
  begin
    root lhipjoint rhipjoint lowerback
    lhipjoint lfemur
    lfemur ltibia
    ltibia lfoot
    lfoot ltoes
    rhipjoint rfemur
    rfemur rtibia
    rtibia rfoot
    rfoot rtoes
    lowerback upperback
    upperback thorax
    thorax lowerneck lclavicle rclavicle
    lowerneck upperneck
    upperneck head
    lclavicle lhumerus
    lhumerus lradius
    lradius lwrist
    lwrist lhand lthumb
    lhand lfingers
    rclavicle rhumerus
    rhumerus rradius
    rradius rwrist
    rwrist rhand rthumb
    rhand rfingers
  end

#!OML:ASF F:\VICON\USERDATA\INSTALL\rory3\rory3.ASF
:FULLY-SPECIFIED
:DEGREES
89
root 0.253275 16.1033 -0.346936 -1.90843 2.61995 -1.49957
lowerback 10.7174 0.40627 -1.19543
upperback 1.47043 0.382222 -0.40295
thorax -4.48003 0.206209 0.19891
lowerneck -8.01996 -3.07425 -10.1203
upperneck 12.6487 -4.52592 12.3585
head 5.6228 -1.87858 5.27036
rclavicle -6.16232e-015 1.59028e-015
rhumerus -30.8789 6.53312 -94.3747
rradius 24.3845
rwrist 12.0944
rhand -12.023 12.2264
rfingers 7.12502
rthumb 14.0349 -17.2797
lclavicle -6.16232e-015 1.59028e-015
lhumerus -26.8689 7.67746 86.0875
lradius 22.91
lwrist 7.88472
lhand -12.3953 12.1854
lfingers 7.12502
lthumb 13.6761 41.716
rfemur 2.18072 13.5124 19.4158
rtibia 13.9286
rfoot -10.7109 -13.6854
rtoes -6.15915
lfemur 2.39403 -14.6036 -16.3038
ltibia 10.6697
lfoot -7.84116 7.47803
ltoes -12.5547
90
root 0.252397 16.1019 -0.34811 -1.90632 2.6223 -1.41821
lowerback 10.7912 0.423944 -1.22731
upperback 1.47553 0.399028 -0.439137
thorax -4.51585 0.214905 0.176281
lowerneck -7.98264 -3.10653 -10.1568
upperneck 12.8546 -4.58252 12.3369
head 5.68681 -1.90843 5.2684
rclavicle -2.13694e-015 -1.27222e-014
rhumerus -30.829 6.23409 -94.2207
rradius 24.2219
rwrist 12.266
rhand -12.0549 12.8622
rfingers 7.12502
rthumb 14.0041 -16.646
lclavicle -2.13694e-015 -1.27222e-014
lhumerus -26.8615 7.58585 86.0826
lradius 22.8367
lwrist 7.94014
lhand -12.6858 12.1211
lfingers 7.12502
lthumb 13.3961 41.6704
rfemur 2.07771 13.5594 19.3269
rtibia 14.0619
rfoot -10.7356 -13.7573
rtoes -6.07805
lfemur 2.34532 -14.6431 -16.3948
ltibia 10.7557
lfoot -7.88293 7.49068
ltoes -12.3776
91
root 0.250769 16.1007 -0.350573 -1.88016 2.58698 -1.37894
lowerback 10.8383 0.46342 -1.24546
upperback 1.48345 0.447437 -0.461766
thorax -4.53431 0.238986 0.155598
lowerneck -8.03911 -3.14819 -10.1382
upperneck 13.1048 -4.6527 12.2961
head 5.78108 -1.94002 5.24958
rclavicle 9.74045e-015 5.56597e-015
rhumerus -30.7988 6.1218 -94.182
rradius 24.2294
rwrist 12.2342
rhand -12.0303 12.9069
rfingers 7.12502
rthumb 14.0278 -16.5997
lclavicle 9.74045e-015 5.56597e-015
lhumerus -26.8417 7.52287 86.0666
lradius 22.797
lwrist 7.96613
lhand -12.5667 12.0279
lfingers 7.12502
lthumb 13.5108 41.5696
rfemur 1.91457 13.6678 19.2819
rtibia 14.2317
rfoot -10.8688 -13.7839
rtoes -5.96229
lfemur 2.29378 -14.692 -16.4317
ltibia 10.8122
lfoot -7.85241 7.49198
ltoes -12.1345
92
root 0.250459 16.1005 -0.352773 -1.87363 2.57172 -1.33771
lowerback 10.8749 0.455118 -1.25666
upperback 1.53288 0.434101 -0.480602
thorax -4.50276 0.232157 0.14422
lowerneck -8.15694 -3.1471 -10.0434
upperneck 13.2753 -4.65339 12.1912
head 5.85011 -1.93716 5.20054
rclavicle 1.27222e-014 -2.38542e-015
rhumerus -30.714 6.20796 -94.2173
rradius 24.2398
rwrist 12.2073
rhand -12.1511 12.9102
rfingers 7.12502
rthumb 13.9113 -16.6044
lclavicle 1.27222e-014 -2.38542e-015
lhumerus -26.7428 7.66614 85.9813
lradius 22.7108
lwrist 7.88015
lhand -12.3245 11.9199
lfingers 7.12502
lthumb 13.7443 41.4459
rfemur 1.81965 13.5919 19.2363
rtibia 14.4296
rfoot -10.9137 -13.705
rtoes -6.43936
lfemur 2.28165 -14.7474 -16.4812
ltibia 10.8187
lfoot -7.82845 7.52752
ltoes -12.0075
93
root 0.249913 16.0993 -0.355653 -1.87628 2.55764 -1.29812
lowerback 10.9261 0.445852 -1.28247
upperback 1.56741 0.418473 -0.476242
thorax -4.49511 0.22474 0.165393
lowerneck -8.0899 -3.1266 -9.98836
upperneck 13.281 -4.62078 12.0716
head 5.8324 -1.92863 5.15492
rclavicle 2.48481e-016 -8.74653e-015
rhumerus -30.638 6.19118 -94.1486
rradius 24.1956
rwrist 12.2201
rhand -12.0827 13.1352
rfingers 7.12502
rthumb 13.9773 -16.3749
lclavicle 2.48481e-016 -8.74653e-015
lhumerus -26.7085 7.97317 85.8647
lradius 22.6319
lwrist 7.72714
lhand -12.1518 11.6534
lfingers 7.12502
lthumb 13.9108 41.1681
rfemur 1.73802 13.5201 19.1913
rtibia 14.6137
rfoot -10.9732 -13.6111
rtoes -6.27232
lfemur 2.23055 -14.7349 -16.5181
ltibia 10.8896
lfoot -7.85507 7.58923
ltoes -12.1526
94
root 0.249373 16.0975 -0.356432 -1.89654 2.51101 -1.29718
lowerback 10.9684 0.451909 -1.25463
upperback 1.5978 0.430169 -0.459941
thorax -4.48691 0.23003 0.164842
lowerneck -7.96326 -3.11591 -10.035
upperneck 13.2513 -4.60623 12.0642
head 5.80012 -1.92866 5.1621
rclavicle 5.56597e-015 -6.36111e-015
rhumerus -30.6109 6.31491 -94.1655
rradius 24.2952
rwrist 11.9875
rhand -12.0587 12.8707
rfingers 7.12502
rthumb 14.0005 -16.6378
lclavicle 5.56597e-015 -6.36111e-015
lhumerus -26.6567 8.34148 85.7219
lradius 22.4923
lwrist 7.67257
lhand -12.1411 11.2759
lfingers 7.12502
lthumb 13.921 40.7899
rfemur 1.66144 13.5695 19.1993
rtibia 14.7945
rfoot -11.0686 -13.5846
rtoes -6.01081
lfemur 2.18841 -14.6821 -16.5209
ltibia 11.0328
lfoot -7.96125 7.61632
ltoes -12.126
95
root 0.249471 16.0956 -0.358814 -1.87927 2.35133 -1.29051
lowerback 11.001 0.487623 -1.23824
upperback 1.60685 0.478806 -0.462438
thorax -4.49597 0.25373 0.145672
lowerneck -7.93229 -3.12175 -10.0665
upperneck 13.3606 -4.6226 12.0717
head 5.83128 -1.93769 5.17059
rclavicle 2.83268e-015 9.14409e-015
rhumerus -30.6482 6.6458 -94.3444
rradius 24.5743
rwrist 11.5892
rhand -12.1877 12.0017
rfingers 7.12502
rthumb 13.8761 -17.5154
lclavicle 2.83268e-015 9.14409e-015
lhumerus -26.6601 8.47026 85.6318
lradius 22.4549
lwrist 7.77238
lhand -12.5851 11.1318
lfingers 7.12502
lthumb 13.4931 40.6747
rfemur 1.51355 13.6167 19.1715
rtibia 14.9504
rfoot -11.0449 -13.4986
rtoes -5.91454
lfemur 2.09971 -14.6333 -16.5357
ltibia 11.2246
lfoot -8.0712 7.7116
ltoes -11.9453
96
root 0.248721 16.0947 -0.365664 -1.82239 2.14264 -1.32722
lowerback 11.0482 0.538674 -1.1984
upperback 1.59821 0.55057 -0.455525
thorax -4.5318 0.288667 0.119402
lowerneck -7.99888 -3.14848 -10.1343
upperneck 13.5896 -4.66971 12.1129
head 5.92192 -1.95707 5.19515
rclavicle -2.83268e-015 6.36111e-015
rhumerus -30.6311 6.82772 -94.4286
rradius 24.5825
rwrist 11.5244
rhand -12.5422 11.9681
rfingers 7.12502
rthumb 13.5345 -17.5721
lclavicle -2.83268e-015 6.36111e-015
lhumerus -26.7141 8.55063 85.5533
lradius 22.4953
lwrist 7.75215
lhand -12.7645 11.3784
lfingers 7.12502
lthumb 13.3202 40.9327
rfemur 1.29745 13.6686 19.1673
rtibia 15.0802
rfoot -10.9716 -13.3381
rtoes -6.26987
lfemur 1.94014 -14.5215 -16.4823
ltibia 11.4227
lfoot -8.10865 7.80189
ltoes -11.9205
97
root 0.246992 16.0941 -0.371742 -1.82122 2.02472 -1.45445
lowerback 11.1511 0.5707 -1.06969
upperback 1.6048 0.609249 -0.406197
thorax -4.58188 0.31597 0.0886731
lowerneck -8.01513 -3.19217 -10.1608
upperneck 13.7434 -4.72547 12.0346
head 5.97816 -1.98891 5.17146
rclavicle 3.52843e-015 -1.19271e-015
rhumerus -30.586 6.76996 -94.3287
rradius 24.4042
rwrist 11.8314
rhand -12.9187 12.6641
rfingers 7.12502
rthumb 13.1716 -16.8998
lclavicle 3.52843e-015 -1.19271e-015
lhumerus -26.8126 8.45914 85.5488
lradius 22.626
lwrist 7.90499
lhand -12.6667 11.7214
lfingers 7.12502
lthumb 13.4145 41.2695
rfemur 1.16232 13.7284 19.305
rtibia 15.2186
rfoot -10.9618 -13.3184
rtoes -6.7725
lfemur 1.833 -14.4449 -16.3208
ltibia 11.6086
lfoot -8.19636 7.79932
ltoes -11.9892
98
root 0.245537 16.0928 -0.373532 -1.8503 2.02242 -1.45701
lowerback 11.2405 0.561266 -1.06264
upperback 1.63775 0.597598 -0.385303
thorax -4.59703 0.310193 0.107581
lowerneck -8.08224 -3.22665 -10.1858
upperneck 13.8997 -4.7664 11.9683
head 6.04266 -2.01115 5.15234
rclavicle -2.73329e-015 3.97569e-016
rhumerus -30.5282 6.84056 -94.284
rradius 24.3115
rwrist 11.9439
rhand -13.1041 12.9902
rfingers 7.12502
rthumb 12.9928 -16.5852
lclavicle -2.73329e-015 3.97569e-016
lhumerus -26.8931 8.43265 85.5264
lradius 22.7162
lwrist 7.97898
lhand -12.673 11.7185
lfingers 7.12502
lthumb 13.4084 41.267
rfemur 1.1208 13.7556 19.3244
rtibia 15.35
rfoot -11.0261 -13.3579
rtoes -6.57384
lfemur 1.78118 -14.4408 -16.3162
ltibia 11.757
lfoot -8.28399 7.7878
ltoes -12.1332
99
root 0.244017 16.0919 -0.375014 -1.86238 2.01693 -1.41845
lowerback 11.3058 0.566012 -1.08389
upperback 1.65902 0.600276 -0.390259
thorax -4.61121 0.311803 0.113497
lowerneck -8.10124 -3.27969 -10.2626
upperneck 14.071 -4.84502 11.994
head 6.11117 -2.04949 5.16998
rclavicle -6.41081e-015 7.95139e-016
rhumerus -30.4476 6.7065 -94.2065
rradius 24.2645
rwrist 12.0012
rhand -13.0446 13.0062
rfingers 7.12502
rthumb 13.0502 -16.5656
lclavicle -6.41081e-015 7.95139e-016
lhumerus -26.9238 8.3555 85.5266
lradius 22.7396
lwrist 8.01017
lhand -12.7043 11.7236
lfingers 7.12502
lthumb 13.3782 41.274
rfemur 1.07256 13.7776 19.2976
rtibia 15.4512
rfoot -11.0189 -13.4135
rtoes -6.71022
lfemur 1.72837 -14.4524 -16.3536
ltibia 11.8708
lfoot -8.40146 7.81108
ltoes -12.364
